<mxfile host="app.diagrams.net" modified="2021-12-05T15:24:30.628Z" agent="5.0 (Windows NT 10.0; Win64; x64) AppleWebKit/537.36 (KHTML, like Gecko) Chrome/96.0.4664.45 Safari/537.36" etag="6Ol76QMC9856bjjD_r71" version="15.9.1" type="github">
  <diagram id="6a731a19-8d31-9384-78a2-239565b7b9f0" name="Page-1">
    <mxGraphModel dx="1423" dy="766" grid="1" gridSize="10" guides="1" tooltips="1" connect="1" arrows="1" fold="1" page="1" pageScale="1" pageWidth="827" pageHeight="1169" background="none" math="0" shadow="0">
      <root>
        <mxCell id="0" />
        <mxCell id="1" parent="0" />
        <mxCell id="0K6ni1bRISuPHaXc44Bc-2268" value="" style="ellipse;shape=cloud;whiteSpace=wrap;html=1;" vertex="1" parent="1">
          <mxGeometry x="20" y="234" width="250" height="190" as="geometry" />
        </mxCell>
        <mxCell id="0K6ni1bRISuPHaXc44Bc-2258" value="" style="shape=mxgraph.cisco.routers.wireless_router;sketch=0;html=1;pointerEvents=1;dashed=0;fillColor=#036897;strokeColor=#ffffff;strokeWidth=2;verticalLabelPosition=bottom;verticalAlign=top;align=center;outlineConnect=0;" vertex="1" parent="1">
          <mxGeometry x="80" y="480" width="78" height="77" as="geometry" />
        </mxCell>
        <mxCell id="0K6ni1bRISuPHaXc44Bc-2259" value="" style="shape=mxgraph.cisco.computers_and_peripherals.pc;sketch=0;html=1;pointerEvents=1;dashed=0;fillColor=#036897;strokeColor=#ffffff;strokeWidth=2;verticalLabelPosition=bottom;verticalAlign=top;align=center;outlineConnect=0;" vertex="1" parent="1">
          <mxGeometry x="336" y="483.5" width="78" height="70" as="geometry" />
        </mxCell>
        <mxCell id="0K6ni1bRISuPHaXc44Bc-2261" value="" style="shape=mxgraph.cisco.computers_and_peripherals.printer;sketch=0;html=1;pointerEvents=1;dashed=0;fillColor=#036897;strokeColor=#ffffff;strokeWidth=2;verticalLabelPosition=bottom;verticalAlign=top;align=center;outlineConnect=0;" vertex="1" parent="1">
          <mxGeometry x="336" y="390" width="91" height="34" as="geometry" />
        </mxCell>
        <mxCell id="0K6ni1bRISuPHaXc44Bc-2265" value="" style="endArrow=none;html=1;rounded=0;" edge="1" parent="1" source="0K6ni1bRISuPHaXc44Bc-2258" target="0K6ni1bRISuPHaXc44Bc-2259">
          <mxGeometry width="50" height="50" relative="1" as="geometry">
            <mxPoint x="430" y="660" as="sourcePoint" />
            <mxPoint x="480" y="610" as="targetPoint" />
          </mxGeometry>
        </mxCell>
        <mxCell id="0K6ni1bRISuPHaXc44Bc-2266" value="" style="endArrow=none;html=1;rounded=0;" edge="1" parent="1" source="0K6ni1bRISuPHaXc44Bc-2258" target="0K6ni1bRISuPHaXc44Bc-2261">
          <mxGeometry width="50" height="50" relative="1" as="geometry">
            <mxPoint x="110" y="420" as="sourcePoint" />
            <mxPoint x="160" y="370" as="targetPoint" />
          </mxGeometry>
        </mxCell>
        <mxCell id="0K6ni1bRISuPHaXc44Bc-2267" value="" style="shape=mxgraph.cisco.computers_and_peripherals.laptop;sketch=0;html=1;pointerEvents=1;dashed=0;fillColor=#036897;strokeColor=#ffffff;strokeWidth=2;verticalLabelPosition=bottom;verticalAlign=top;align=center;outlineConnect=0;" vertex="1" parent="1">
          <mxGeometry x="100" y="310" width="90" height="61" as="geometry" />
        </mxCell>
        <mxCell id="0K6ni1bRISuPHaXc44Bc-2269" value="PC" style="text;html=1;strokeColor=none;fillColor=none;align=center;verticalAlign=middle;whiteSpace=wrap;rounded=0;" vertex="1" parent="1">
          <mxGeometry x="345" y="553.5" width="60" height="30" as="geometry" />
        </mxCell>
        <mxCell id="0K6ni1bRISuPHaXc44Bc-2270" value="WiFi" style="text;html=1;strokeColor=none;fillColor=none;align=center;verticalAlign=middle;whiteSpace=wrap;rounded=0;" vertex="1" parent="1">
          <mxGeometry x="100" y="260" width="60" height="30" as="geometry" />
        </mxCell>
        <mxCell id="0K6ni1bRISuPHaXc44Bc-2272" value="Printer" style="text;html=1;strokeColor=none;fillColor=none;align=center;verticalAlign=middle;whiteSpace=wrap;rounded=0;" vertex="1" parent="1">
          <mxGeometry x="367" y="430" width="60" height="30" as="geometry" />
        </mxCell>
        <mxCell id="0K6ni1bRISuPHaXc44Bc-2273" value="" style="shape=mxgraph.cisco.servers.storage_server;sketch=0;html=1;pointerEvents=1;dashed=0;fillColor=#036897;strokeColor=#ffffff;strokeWidth=2;verticalLabelPosition=bottom;verticalAlign=top;align=center;outlineConnect=0;" vertex="1" parent="1">
          <mxGeometry x="103" y="620" width="54" height="83" as="geometry" />
        </mxCell>
        <mxCell id="0K6ni1bRISuPHaXc44Bc-2274" value="" style="endArrow=none;html=1;rounded=0;" edge="1" parent="1" source="0K6ni1bRISuPHaXc44Bc-2273" target="0K6ni1bRISuPHaXc44Bc-2258">
          <mxGeometry width="50" height="50" relative="1" as="geometry">
            <mxPoint x="260" y="690" as="sourcePoint" />
            <mxPoint x="310" y="640" as="targetPoint" />
          </mxGeometry>
        </mxCell>
        <mxCell id="0K6ni1bRISuPHaXc44Bc-2275" value="Storage Server" style="text;html=1;strokeColor=none;fillColor=none;align=center;verticalAlign=middle;whiteSpace=wrap;rounded=0;" vertex="1" parent="1">
          <mxGeometry x="115" y="730" width="60" height="30" as="geometry" />
        </mxCell>
      </root>
    </mxGraphModel>
  </diagram>
</mxfile>
